<mxfile host="app.diagrams.net" modified="2020-08-11T00:16:53.233Z" agent="5.0 (Windows)" etag="068MFEDFVwYp_3J1SCXg" version="13.6.2" type="github">
  <diagram id="sHzKMFv6SCYBmkq1kRXC" name="Page-1">
    <mxGraphModel dx="1102" dy="583" grid="1" gridSize="10" guides="1" tooltips="1" connect="1" arrows="1" fold="1" page="1" pageScale="1" pageWidth="827" pageHeight="1169" math="0" shadow="0">
      <root>
        <mxCell id="0" />
        <mxCell id="1" parent="0" />
        <mxCell id="dGPL9olVX9tQ0jv7Rh_E-7" value="" style="edgeStyle=orthogonalEdgeStyle;rounded=0;orthogonalLoop=1;jettySize=auto;html=1;" parent="1" source="dGPL9olVX9tQ0jv7Rh_E-4" target="dGPL9olVX9tQ0jv7Rh_E-6" edge="1">
          <mxGeometry relative="1" as="geometry" />
        </mxCell>
        <mxCell id="dGPL9olVX9tQ0jv7Rh_E-4" value="Agencia" style="shape=parallelogram;perimeter=parallelogramPerimeter;whiteSpace=wrap;html=1;fixedSize=1;" parent="1" vertex="1">
          <mxGeometry x="305" y="120" width="190" height="60" as="geometry" />
        </mxCell>
        <mxCell id="Ak7jSR0kkP7QUNzNOenr-4" value="" style="edgeStyle=orthogonalEdgeStyle;rounded=0;orthogonalLoop=1;jettySize=auto;html=1;" edge="1" parent="1" source="dGPL9olVX9tQ0jv7Rh_E-6" target="twogQJvXnre2T581Zdbx-2">
          <mxGeometry relative="1" as="geometry" />
        </mxCell>
        <mxCell id="dGPL9olVX9tQ0jv7Rh_E-6" value="conta" style="shape=parallelogram;perimeter=parallelogramPerimeter;whiteSpace=wrap;html=1;fixedSize=1;" parent="1" vertex="1">
          <mxGeometry x="300" y="230" width="200" height="60" as="geometry" />
        </mxCell>
        <mxCell id="dGPL9olVX9tQ0jv7Rh_E-15" style="edgeStyle=orthogonalEdgeStyle;rounded=0;orthogonalLoop=1;jettySize=auto;html=1;entryX=0.425;entryY=-0.025;entryDx=0;entryDy=0;entryPerimeter=0;" parent="1" source="dGPL9olVX9tQ0jv7Rh_E-13" target="dGPL9olVX9tQ0jv7Rh_E-14" edge="1">
          <mxGeometry relative="1" as="geometry" />
        </mxCell>
        <mxCell id="dGPL9olVX9tQ0jv7Rh_E-13" value="Efetuar saque" style="shape=document;whiteSpace=wrap;html=1;boundedLbl=1;" parent="1" vertex="1">
          <mxGeometry x="340" y="510" width="120" height="80" as="geometry" />
        </mxCell>
        <mxCell id="dGPL9olVX9tQ0jv7Rh_E-14" value="Fim&lt;br&gt;" style="ellipse;whiteSpace=wrap;html=1;" parent="1" vertex="1">
          <mxGeometry x="350" y="700" width="120" height="80" as="geometry" />
        </mxCell>
        <mxCell id="Ak7jSR0kkP7QUNzNOenr-7" style="edgeStyle=orthogonalEdgeStyle;rounded=0;orthogonalLoop=1;jettySize=auto;html=1;entryX=1;entryY=0.613;entryDx=0;entryDy=0;entryPerimeter=0;" edge="1" parent="1" source="twogQJvXnre2T581Zdbx-1" target="dGPL9olVX9tQ0jv7Rh_E-14">
          <mxGeometry relative="1" as="geometry">
            <mxPoint x="660" y="760" as="targetPoint" />
            <Array as="points">
              <mxPoint x="660" y="749" />
            </Array>
          </mxGeometry>
        </mxCell>
        <mxCell id="twogQJvXnre2T581Zdbx-1" value="Saldo insuficiente" style="shape=document;whiteSpace=wrap;html=1;boundedLbl=1;" parent="1" vertex="1">
          <mxGeometry x="590" y="350" width="120" height="80" as="geometry" />
        </mxCell>
        <mxCell id="Ak7jSR0kkP7QUNzNOenr-5" value="" style="edgeStyle=orthogonalEdgeStyle;rounded=0;orthogonalLoop=1;jettySize=auto;html=1;" edge="1" parent="1" source="twogQJvXnre2T581Zdbx-2" target="twogQJvXnre2T581Zdbx-1">
          <mxGeometry relative="1" as="geometry" />
        </mxCell>
        <mxCell id="Ak7jSR0kkP7QUNzNOenr-6" value="" style="edgeStyle=orthogonalEdgeStyle;rounded=0;orthogonalLoop=1;jettySize=auto;html=1;" edge="1" parent="1" source="twogQJvXnre2T581Zdbx-2" target="dGPL9olVX9tQ0jv7Rh_E-13">
          <mxGeometry relative="1" as="geometry" />
        </mxCell>
        <mxCell id="twogQJvXnre2T581Zdbx-2" value="saldo?&lt;br&gt;" style="rhombus;whiteSpace=wrap;html=1;" parent="1" vertex="1">
          <mxGeometry x="310" y="350" width="180" height="80" as="geometry" />
        </mxCell>
        <mxCell id="Ak7jSR0kkP7QUNzNOenr-3" style="edgeStyle=orthogonalEdgeStyle;rounded=0;orthogonalLoop=1;jettySize=auto;html=1;" edge="1" parent="1" source="Ak7jSR0kkP7QUNzNOenr-2" target="dGPL9olVX9tQ0jv7Rh_E-4">
          <mxGeometry relative="1" as="geometry" />
        </mxCell>
        <mxCell id="Ak7jSR0kkP7QUNzNOenr-2" value="Saque" style="rounded=1;whiteSpace=wrap;html=1;" vertex="1" parent="1">
          <mxGeometry x="270" y="10" width="260" height="60" as="geometry" />
        </mxCell>
        <mxCell id="Ak7jSR0kkP7QUNzNOenr-8" value="NÃ£o" style="text;html=1;align=center;verticalAlign=middle;resizable=0;points=[];autosize=1;" vertex="1" parent="1">
          <mxGeometry x="510" y="360" width="40" height="20" as="geometry" />
        </mxCell>
        <mxCell id="Ak7jSR0kkP7QUNzNOenr-10" value="Sim" style="text;html=1;align=center;verticalAlign=middle;resizable=0;points=[];autosize=1;" vertex="1" parent="1">
          <mxGeometry x="400" y="450" width="40" height="20" as="geometry" />
        </mxCell>
      </root>
    </mxGraphModel>
  </diagram>
</mxfile>
